<?xml version="1.0" encoding="UTF-8" standalone="no"?>
<!-- Created with Inkscape (http://www.inkscape.org/) -->

<svg
   xmlns:dc="http://purl.org/dc/elements/1.1/"
   xmlns:cc="http://creativecommons.org/ns#"
   xmlns:rdf="http://www.w3.org/1999/02/22-rdf-syntax-ns#"
   xmlns:svg="http://www.w3.org/2000/svg"
   xmlns="http://www.w3.org/2000/svg"
   xmlns:sodipodi="http://sodipodi.sourceforge.net/DTD/sodipodi-0.dtd"
   xmlns:inkscape="http://www.inkscape.org/namespaces/inkscape"
   width="11in"
   height="8.5in"
   viewBox="0 0 279.40001 215.9"
   version="1.1"
   id="svg5"
   inkscape:version="0.92.2 (5c3e80d, 2017-08-06)"
   sodipodi:docname="MTRAS_SUMO_Kit_Main.svg">
  <metadata
     id="metadata5601">
    <rdf:RDF>
      <cc:Work
         rdf:about="">
        <dc:format>image/svg+xml</dc:format>
        <dc:type
           rdf:resource="http://purl.org/dc/dcmitype/StillImage" />
        <dc:title></dc:title>
      </cc:Work>
    </rdf:RDF>
  </metadata>
  <sodipodi:namedview
     id="namedview7"
     pagecolor="#ffffff"
     bordercolor="#000000"
     borderopacity="0.25"
     inkscape:showpageshadow="2"
     inkscape:pageopacity="0.0"
     inkscape:pagecheckerboard="0"
     inkscape:deskcolor="#d1d1d1"
     inkscape:document-units="in"
     showgrid="false"
     showguides="true"
     inkscape:guide-bbox="true"
     inkscape:zoom="1.0606602"
     inkscape:cx="575.02054"
     inkscape:cy="352.62051"
     inkscape:window-width="1920"
     inkscape:window-height="991"
     inkscape:window-x="-9"
     inkscape:window-y="-9"
     inkscape:window-maximized="1"
     inkscape:current-layer="layer1" />
  <defs
     id="defs2" />
  <g
     inkscape:label="Layer 1"
     inkscape:groupmode="layer"
     id="layer1"
     transform="translate(0,-88.900001)">
    <path
       id="path8551"
       d=""
       inkscape:connector-curvature="0"
       style="fill:none;stroke:#ff0000;stroke-width:0.00026458mm" />
    <path
       style="font-size:medium;opacity:1;vector-effect:non-scaling-stroke;fill:none;fill-rule:evenodd;stroke:#ff0000;stroke-width:0.33020002;stroke-linecap:round;stroke-miterlimit:4;stroke-dasharray:none"
       d="m 122.00356,197.02648 v 3 h 14.24956 v -6.5 h 3 v -5.125 h -2.75 v -1.375 -1.375 h 2.75 v -5.125 h -3 v -6.5 h -14.24956 v 3 H 89.503556 v -3 h -14.25046 v 6.5 h -3 v 5.125 h 2.75 v 1.375 1.375 h -2.75 v 5.125 h 3 v 6.5 h 14.25046 v -3 l 10.912344,-1e-5 v -7.67442 h 10.67442 v 7.67442 z"
       id="path26566"
       inkscape:connector-curvature="0"
       sodipodi:nodetypes="ccccccccccccccccccccccccccccccccccc" />
    <path
       inkscape:connector-curvature="0"
       style="opacity:1;fill:none;fill-opacity:1;stroke:#0000f4;stroke-width:0.33020002;stroke-miterlimit:4;stroke-dasharray:none;stroke-opacity:1"
       d="m 95.877746,181.60852 a 1.5000001,1.5000001 0 0 1 1.50017,1.50017 1.5000001,1.5000001 0 0 1 -1.50017,1.50016 1.5000001,1.5000001 0 0 1 -1.49965,-1.50016 1.5000001,1.5000001 0 0 1 1.49965,-1.50017 z"
       id="path47058" />
    <path
       inkscape:connector-curvature="0"
       style="opacity:1;fill:none;fill-opacity:1;stroke:#0000f4;stroke-width:0.33020002;stroke-miterlimit:4;stroke-dasharray:none;stroke-opacity:1"
       d="m 115.62797,181.60852 a 1.5,1.5 0 0 1 1.50016,1.50017 1.5,1.5 0 0 1 -1.50016,1.50016 1.5,1.5 0 0 1 -1.50018,-1.50016 1.5,1.5 0 0 1 1.50018,-1.50017 z"
       id="rect10329" />
    <path
       inkscape:connector-curvature="0"
       style="opacity:1;fill:none;fill-opacity:0.41176471;stroke:#0000f4;stroke-width:0.26287887;stroke-miterlimit:4;stroke-dasharray:none;stroke-opacity:1"
       d="m 103.38457,179.32522 h 4.73712 v 2.73712 h -4.73712 z"
       id="rect47006" />
    <path
       sodipodi:nodetypes="ccccc"
       inkscape:connector-curvature="0"
       id="path9206"
       d="m 53.193655,209.36092 v -11.89143 h -10.64073 v 11.89144 z"
       style="font-size:medium;opacity:1;vector-effect:non-scaling-stroke;fill:none;fill-rule:evenodd;stroke:#f00000;stroke-width:0.33020002;stroke-linecap:round;stroke-miterlimit:4;stroke-dasharray:none;stroke-opacity:1" />
    <path
       sodipodi:nodetypes="ccccccccccccccccccccccccccccccccccccccccccccccccccccc"
       inkscape:connector-curvature="0"
       id="path9208"
       d="m 40.953255,244.62012 h 2.74971 v 1.25005 h 2.24999 v -1.25005 h 2.24999 v -2.75022 h -2.24999 v -1.24954 h -2.24999 v 1.24954 l -2.74993,-2e-5 v -30.50214 h -3.00011 v -28.03121 h 6.50038 v 2.99982 h 5.12475 v 2.75022 h -1.25005 v 2.24999 h 1.25005 v 2.24999 h 2.75022 v -2.24999 h 1.25005 v -2.24999 h -1.25005 v -2.75022 h 5.12475 v -2.99982 h 6.49986 v 22.99963 h -2.99981 v 18.52259 h -2.75022 v -1.24954 h -2.25 v 1.24954 h -2.24999 v 2.75021 h 2.24999 v 1.25006 h 2.25 v -1.25006 h 2.75022 v 24.7275 h 2.99981 v 12.23078 l -25.99996,10.76265 v -22.99343 h 3.00033 z"
       style="font-size:medium;opacity:1;vector-effect:non-scaling-stroke;fill:none;fill-rule:evenodd;stroke:#f00000;stroke-width:0.33020002;stroke-linecap:round;stroke-miterlimit:4;stroke-dasharray:none;stroke-opacity:1" />
    <path
       id="path9210"
       d="m 47.623155,207.24801 a 3.8326436,3.8328079 0 0 0 3.83264,-3.8328 3.8326436,3.8328079 0 0 0 -3.83264,-3.8328 3.8326436,3.8328079 0 0 0 -3.83264,3.8328 3.8326436,3.8328079 0 0 0 3.83264,3.8328 z"
       style="opacity:1;fill:none;fill-opacity:1;stroke:#fafe05;stroke-width:0.33470935;stroke-miterlimit:4;stroke-dasharray:none;stroke-opacity:1"
       inkscape:connector-curvature="0" />
    <path
       id="path9212"
       d="m 47.623155,205.25547 a 1.8401876,1.8402665 0 0 0 1.84019,-1.84026 1.8401876,1.8402665 0 0 0 -1.84019,-1.84026 1.8401876,1.8402665 0 0 0 -1.84019,1.84026 1.8401876,1.8402665 0 0 0 1.84019,1.84026 z"
       style="opacity:1;fill:none;fill-opacity:1;stroke:#0000f4;stroke-width:0.31962627;stroke-miterlimit:4;stroke-dasharray:none;stroke-opacity:1"
       inkscape:connector-curvature="0" />
    <path
       inkscape:connector-curvature="0"
       style="opacity:1;fill:none;fill-opacity:0.41176471;stroke:#0000f4;stroke-width:0.33019999;stroke-linecap:round;stroke-linejoin:round;stroke-miterlimit:4;stroke-dasharray:none;stroke-dashoffset:0;stroke-opacity:1;shape-rendering:crispEdges"
       d="m 49.083815,251.41451 a 1.460657,1.4606569 0 0 0 -1.46066,-1.46066 1.460657,1.4606569 0 0 0 -1.46066,1.46066 1.460657,1.4606569 0 0 0 1.46066,1.46066 1.460657,1.4606569 0 0 0 1.46066,-1.46066 z"
       id="path9214" />
    <path
       id="path9216"
       d="m 51.419575,237.10267 a 1.5000001,1.5000001 0 0 0 -1.50017,-1.50017 1.5000001,1.5000001 0 0 0 -1.50016,1.50017 1.5000001,1.5000001 0 0 0 1.50016,1.49965 1.5000001,1.5000001 0 0 0 1.50017,-1.49965 z"
       style="opacity:1;fill:none;fill-opacity:1;stroke:#0000f4;stroke-width:0.33020002;stroke-miterlimit:4;stroke-dasharray:none;stroke-opacity:1"
       inkscape:connector-curvature="0" />
    <path
       id="path9220"
       d="m 51.419575,217.35245 a 1.5,1.5 0 0 0 -1.50017,-1.50016 1.5,1.5 0 0 0 -1.50016,1.50016 1.5,1.5 0 0 0 1.50016,1.50017 1.5,1.5 0 0 0 1.50017,-1.50017 z"
       style="opacity:1;fill:none;fill-opacity:1;stroke:#0000f4;stroke-width:0.33020002;stroke-miterlimit:4;stroke-dasharray:none;stroke-opacity:1"
       inkscape:connector-curvature="0" />
    <path
       id="path9222"
       d="m 53.702865,229.59587 v -4.73712 h -2.73712 v 4.73712 z"
       style="opacity:1;fill:none;fill-opacity:0.41176471;stroke:#0000f4;stroke-width:0.26287887;stroke-miterlimit:4;stroke-dasharray:none;stroke-opacity:1"
       inkscape:connector-curvature="0" />
    <path
       style="fill:none;fill-opacity:1;stroke:#0000f4;stroke-width:0.33019999;stroke-miterlimit:4;stroke-dasharray:none;stroke-opacity:1"
       d="m 51.247985,258.66249 -5e-5,2e-4 -0.022,0.14549 -0.007,0.14791 0.007,0.14625 0.0215,0.14589 0.0205,0.0803 0.0162,0.0626 0.0489,0.13888 0.0636,0.13274 0.0749,0.12593 0.088,0.11833 0.0985,0.10967 0.10911,0.0988 0.0996,0.0735 0.0188,0.0139 0.12684,0.0763 0.13318,0.0628 0.1382,0.0488 0.1427,0.0361 0.14549,0.022 0.14698,0.007 0.14718,-0.008 0.0326,-0.005 0.11322,-0.0167 0.14331,-0.0356 0.13849,-0.0498 0.13313,-0.0627 0.12554,-0.0758 0.11834,-0.088 0.10967,-0.0985 0.0988,-0.1091 0.004,-0.005 1e-4,-1.1e-4 0.0813,-0.10944 0.007,-0.009 0.065,-0.10919 0.0103,-0.0174 0.0584,-0.12387 0.005,-0.01 0.0415,-0.11568 0.008,-0.0229 0.0272,-0.10716 0.009,-0.0355 0.003,-0.0196 0.0131,-0.0889 0.006,-0.0379 0.007,-0.14699 -0.002,-0.0359 -0.003,-0.0589 -0.003,-0.0524 -0.0134,-0.0909 -0.008,-0.055 -0.0219,-0.0884 -0.014,-0.0547 -0.007,-0.0198 -0.0427,-0.1187 -0.0538,-0.11411 -0.009,-0.019 -0.0309,-0.0511 -0.008,-0.0133 -0.0375,-0.0623 -0.0417,-0.0561 -0.0462,-0.0623 -0.0454,-0.0505 -0.0531,-0.0592 -0.052,-0.0471 -0.0571,-0.0517 -0.0544,-0.0401 -0.0642,-0.0472 -0.0507,-0.0305 -0.0761,-0.0457 -0.063,-0.0297 -0.0702,-0.0331 -0.0566,-0.0204 -0.082,-0.0294 -0.11187,-0.0283 -0.0308,-0.008 -0.0783,-0.0111 -0.0677,-0.01 -0.0714,-0.004 -0.0756,-0.004 -0.0762,0.004 -0.0713,0.003 -0.0817,0.012 -0.0642,0.009 -0.0749,0.0191 -0.068,0.0174 -0.0347,0.0122 -0.10415,0.0367 -0.0996,0.0477 -0.0331,0.0159 -0.0866,0.0515 -0.0401,0.0242 -0.0834,0.062 -0.0349,0.0259 -0.0788,0.0716 -0.0306,0.0278 -0.0839,0.0927 -0.0146,0.0169 -0.0737,0.0988 -0.0139,0.0186 -0.0165,0.0274 -0.0473,0.0788 -0.0125,0.0206 -0.0547,0.11608 -0.008,0.0171 -0.0457,0.12705 -0.004,0.0114 -0.0357,0.14347 -3e-5,1.4e-4 -1.6e-4,0.002 -7e-4,0.004"
       id="path12072"
       inkscape:connector-curvature="0" />
    <path
       style="font-size:medium;opacity:1;vector-effect:non-scaling-stroke;fill:none;fill-rule:evenodd;stroke:#f00000;stroke-width:0.33020002;stroke-linecap:round;stroke-miterlimit:4;stroke-dasharray:none;stroke-opacity:1"
       d="M 21.678639,208.36773 V 196.4763 h 10.64073 v 11.89144 z"
       id="path12085"
       inkscape:connector-curvature="0"
       sodipodi:nodetypes="ccccc" />
    <path
       style="font-size:medium;opacity:1;vector-effect:non-scaling-stroke;fill:none;fill-rule:evenodd;stroke:#f00000;stroke-width:0.33020002;stroke-linecap:round;stroke-miterlimit:4;stroke-dasharray:none;stroke-opacity:1"
       d="m 32.319149,244.62012 h -2.74971 v 1.25005 h -2.24999 v -1.25005 h -2.24999 v -2.75023 h 2.24999 v -1.24953 h 2.24999 v 1.24953 h 2.74993 v -30.50216 h 3.00011 v -28.0312 h -6.50038 v 2.99982 h -5.12475 v 2.75022 h 1.25005 v 2.24998 h -1.25005 v 2.25 h -2.75022 v -2.25 h -1.25005 v -2.24998 h 1.25005 v -2.75022 h -5.12475 v -2.99982 H 9.3195196 v 22.99963 h 2.9998094 v 18.52259 h 2.75022 v -1.24954 h 2.25 v 1.24954 h 2.24999 v 2.75022 h -2.24999 v 1.25005 h -2.25 v -1.25005 h -2.75022 v 24.72749 H 9.3195196 v 12.23078 l 25.9999594,10.76265 v -22.99343 h -3.00033 z"
       id="path12087"
       inkscape:connector-curvature="0"
       sodipodi:nodetypes="ccccccccccccccccccccccccccccccccccccccccccccccccccccc" />
    <path
       inkscape:connector-curvature="0"
       style="opacity:1;fill:none;fill-opacity:1;stroke:#fafe05;stroke-width:0.33470935;stroke-miterlimit:4;stroke-dasharray:none;stroke-opacity:1"
       d="m 27.249139,206.25482 a 3.8326436,3.8328079 0 0 1 -3.83264,-3.8328 3.8326436,3.8328079 0 0 1 3.83264,-3.8328 3.8326436,3.8328079 0 0 1 3.83264,3.8328 3.8326436,3.8328079 0 0 1 -3.83264,3.8328 z"
       id="path12089" />
    <path
       inkscape:connector-curvature="0"
       style="opacity:1;fill:none;fill-opacity:1;stroke:#0000f4;stroke-width:0.31962627;stroke-miterlimit:4;stroke-dasharray:none;stroke-opacity:1"
       d="m 27.249139,204.26229 a 1.8401876,1.8402665 0 0 1 -1.84019,-1.84026 1.8401876,1.8402665 0 0 1 1.84019,-1.84026 1.8401876,1.8402665 0 0 1 1.84019,1.84026 1.8401876,1.8402665 0 0 1 -1.84019,1.84026 z"
       id="path12091" />
    <path
       id="path12093"
       d="m 25.788479,250.42132 a 1.460657,1.4606569 0 0 1 1.46066,-1.46066 1.460657,1.4606569 0 0 1 1.46066,1.46066 1.460657,1.4606569 0 0 1 -1.46066,1.46065 1.460657,1.4606569 0 0 1 -1.46066,-1.46065 z"
       style="opacity:1;fill:none;fill-opacity:0.41176471;stroke:#0000f4;stroke-width:0.33019999;stroke-linecap:round;stroke-linejoin:round;stroke-miterlimit:4;stroke-dasharray:none;stroke-dashoffset:0;stroke-opacity:1;shape-rendering:crispEdges"
       inkscape:connector-curvature="0" />
    <path
       inkscape:connector-curvature="0"
       style="opacity:1;fill:none;fill-opacity:1;stroke:#0000f4;stroke-width:0.33020002;stroke-miterlimit:4;stroke-dasharray:none;stroke-opacity:1"
       d="m 23.452719,236.10948 a 1.5000001,1.5000001 0 0 1 1.50017,-1.50017 1.5000001,1.5000001 0 0 1 1.50016,1.50017 1.5000001,1.5000001 0 0 1 -1.50016,1.49965 1.5000001,1.5000001 0 0 1 -1.50017,-1.49965 z"
       id="path12095" />
    <path
       inkscape:connector-curvature="0"
       style="opacity:1;fill:none;fill-opacity:1;stroke:#0000f4;stroke-width:0.33020002;stroke-miterlimit:4;stroke-dasharray:none;stroke-opacity:1"
       d="m 23.452719,216.35926 a 1.5,1.5 0 0 1 1.50017,-1.50016 1.5,1.5 0 0 1 1.50016,1.50016 1.5,1.5 0 0 1 -1.50016,1.50017 1.5,1.5 0 0 1 -1.50017,-1.50017 z"
       id="path12097" />
    <path
       inkscape:connector-curvature="0"
       style="opacity:1;fill:none;fill-opacity:0.41176471;stroke:#0000f4;stroke-width:0.26287887;stroke-miterlimit:4;stroke-dasharray:none;stroke-opacity:1"
       d="m 21.169429,228.60268 v -4.73712 h 2.73712 v 4.73712 z"
       id="path12099" />
    <path
       inkscape:connector-curvature="0"
       id="path12101"
       d="m 23.624309,257.6693 5e-5,2e-4 0.022,0.14549 0.007,0.14791 -0.008,0.14625 -0.0215,0.14589 -0.0205,0.0803 -0.0162,0.0626 -0.0489,0.13888 -0.0636,0.13274 -0.0749,0.12593 -0.088,0.11833 -0.0985,0.10967 -0.10911,0.0988 -0.0996,0.0735 -0.0188,0.0139 -0.12684,0.0763 -0.13318,0.0628 -0.1382,0.0488 -0.1427,0.0361 -0.14549,0.022 -0.14698,0.007 -0.14717,-0.008 -0.0326,-0.005 -0.11323,-0.0167 -0.14331,-0.0356 -0.13849,-0.0498 -0.13313,-0.0627 -0.12554,-0.0758 -0.11834,-0.088 -0.10967,-0.0985 -0.0988,-0.1091 -0.004,-0.005 -9e-5,-1.1e-4 -0.0813,-0.10944 -0.007,-0.009 -0.065,-0.10919 -0.0103,-0.0174 -0.0584,-0.12387 -0.005,-0.01 -0.0415,-0.11568 -0.008,-0.0229 -0.0272,-0.10716 -0.009,-0.0355 -0.003,-0.0196 -0.0131,-0.0889 -0.006,-0.0379 -0.007,-0.14699 0.002,-0.0359 0.003,-0.0589 0.003,-0.0524 0.0134,-0.0909 0.008,-0.055 0.0219,-0.0884 0.014,-0.0547 0.007,-0.0198 0.0427,-0.1187 0.0538,-0.11411 0.009,-0.019 0.0309,-0.0511 0.008,-0.0133 0.0375,-0.0623 0.0417,-0.0561 0.0462,-0.0623 0.0454,-0.0505 0.0531,-0.0592 0.052,-0.0471 0.0571,-0.0517 0.0544,-0.0401 0.0642,-0.0472 0.0507,-0.0305 0.0761,-0.0457 0.063,-0.0297 0.0702,-0.0331 0.0566,-0.0204 0.082,-0.0294 0.11186,-0.0283 0.0308,-0.008 0.0783,-0.0111 0.0677,-0.01 0.0714,-0.004 0.0756,-0.004 0.0762,0.004 0.0713,0.003 0.0817,0.012 0.0642,0.009 0.0749,0.0191 0.068,0.0174 0.0347,0.0122 0.10415,0.0367 0.0996,0.0477 0.0331,0.0159 0.0866,0.0515 0.0401,0.0242 0.0834,0.062 0.0349,0.0259 0.0788,0.0716 0.0306,0.0278 0.0839,0.0927 0.0147,0.0169 0.0737,0.0988 0.0139,0.0186 0.0165,0.0274 0.0473,0.0788 0.0125,0.0206 0.0547,0.11608 0.008,0.0171 0.0457,0.12705 0.004,0.0114 0.0357,0.14347 3e-5,1.4e-4 1.6e-4,0.002 7e-4,0.004"
       style="fill:none;fill-opacity:1;stroke:#0000f4;stroke-width:0.33019999;stroke-miterlimit:4;stroke-dasharray:none;stroke-opacity:1" />
    <path
       sodipodi:nodetypes="ccccccccccccccccccccccccccccccccccccccc"
       inkscape:connector-curvature="0"
       id="path21335-3"
       d="m 75.25322,114.20791 h -3.00034 v 18.52286 h 2.75022 v 1.37511 1.37511 h -2.75022 v 24.7329 h 3.00034 v 12.2251 h 5.58209 v -3.00048 h 49.83571 v 3 l 5.58209,4.8e-4 v -12.2251 h 2.99982 l 3e-5,-24.7329 h -2.7497 v -1.37511 -1.37511 h 2.7497 v -18.52286 h -2.99982 V 94.208104 h -14.25029 v -2.99981 l -32.50034,0 v 2.99981 l -2.10168,4.1e-4 v 3 h -4.72788 v -3.00041 h -7.4197 l -4.6e-4,8.985496 h 3 v 15.72979 h -2.98817 v -4.72788"
       style="font-size:medium;opacity:1;vector-effect:non-scaling-stroke;fill:none;fill-rule:evenodd;stroke:#f00000;stroke-width:0.33020002;stroke-linecap:round;stroke-miterlimit:4;stroke-dasharray:none;stroke-opacity:1" />
    <path
       inkscape:connector-curvature="0"
       id="path21339-9"
       d="m 75.88025,95.607034 59.74713,0 0,59.747116 H 75.88025 V 95.607034"
       style="opacity:1;fill:none;stroke:#00f100;stroke-width:0.33019999;stroke-linecap:round;stroke-linejoin:round;stroke-miterlimit:4;stroke-dasharray:none;stroke-opacity:1;shape-rendering:crispEdges" />
    <path
       inkscape:connector-curvature="0"
       style="fill:none;stroke:#0000f4;stroke-width:0.33020002;stroke-miterlimit:4;stroke-dasharray:none;stroke-opacity:1"
       d="m 118.8616,163.26899 0.0616,0.083 0.0334,0.045 0.107,0.119 0.118,0.107 0.128,0.095 0.137,0.082 0.14401,0.069 0.15,0.053 0.114,0.0287 0.041,0.0103 0.158,0.024 0.159,0.007 0.16,-0.007 0.157,-0.024 0.155,-0.039 0.15,-0.053 0.044,-0.0211 0.1,-0.0479 0.137,-0.082 0.12801,-0.095 0.118,-0.107 0.108,-0.119 0.095,-0.128 0.082,-0.137 0.068,-0.144 0.054,-0.151 0.038,-0.154 0.024,-0.158 0.007,-0.16 -0.002,-0.037 -0.005,-0.123 -0.024,-0.158 -0.038,-0.154 -0.054,-0.151 -0.068,-0.144 -0.082,-0.137 -0.095,-0.128 -0.108,-0.119 -0.118,-0.107 -0.12801,-0.095 -0.137,-0.082 -0.1,-0.0479 -0.044,-0.0211 -0.15,-0.053 -0.155,-0.039 -0.157,-0.024 -0.16,-0.008 -0.159,0.008 -0.158,0.024 -0.041,0.0103 -0.114,0.0287 -0.15,0.053 -0.14401,0.069 -0.137,0.082 -0.128,0.095 -0.118,0.107 -0.107,0.119 -0.095,0.128 -0.082,0.137 -0.068,0.144 -0.054,0.151 -0.039,0.154 -0.023,0.158 -0.006,0.123 -0.002,0.037 0.008,0.16 0.023,0.158 0.039,0.154 0.054,0.151 0.068,0.144 0.082,0.137"
       id="path21341-4" />
    <path
       inkscape:connector-curvature="0"
       style="fill:none;stroke:#0000f4;stroke-width:0.33020002;stroke-miterlimit:4;stroke-dasharray:none;stroke-opacity:1"
       d="m 90.26325,163.62299 0.053,0.0393 0.075,0.0557 0.137,0.082 0.144,0.069 0.15,0.053 0.155,0.039 0.157,0.024 0.16,0.007 0.159,-0.007 0.158,-0.024 0.15501,-0.039 0.15,-0.053 0.144,-0.069 0.137,-0.082 0.128,-0.095 0.039,-0.0354 0.079,-0.0716 0.107,-0.119 0.095,-0.128 0.082,-0.137 0.068,-0.144 0.054,-0.151 0.039,-0.154 0.023,-0.158 0.008,-0.16 -0.002,-0.037 -0.006,-0.123 -0.023,-0.158 -0.039,-0.154 -0.054,-0.151 -0.068,-0.144 -0.082,-0.137 -0.095,-0.128 -0.107,-0.119 -0.079,-0.0716 -0.039,-0.0354 -0.128,-0.095 -0.137,-0.082 -0.144,-0.069 -0.15,-0.053 -0.15501,-0.039 -0.158,-0.024 -0.113,-0.006 -0.046,-0.002 -0.16,0.008 -0.157,0.024 -0.155,0.039 -0.15,0.053 -0.144,0.069 -0.137,0.082 -0.075,0.0557 -0.053,0.0393 -0.11801,0.107 -0.108,0.119 -0.095,0.128 -0.082,0.137 -0.068,0.144 -0.054,0.151 -0.038,0.154 -0.024,0.158 -0.006,0.123 -0.002,0.037 0.008,0.16 0.024,0.158 0.038,0.154 0.054,0.151 0.068,0.144 0.082,0.137 0.095,0.128 0.108,0.119 0.11801,0.107"
       id="path21343-5" />
    <g
       id="g6180"
       transform="rotate(90,79.487579,68.439543)">
      <path
         inkscape:connector-curvature="0"
         style="opacity:1;fill:none;fill-opacity:1;stroke:#0000fe;stroke-width:0.25108796;stroke-opacity:1;shape-rendering:crispEdges"
         d="m 164.52773,12.799745 a 1.374459,1.3744557 0 0 1 1.37446,1.374456 1.374459,1.3744557 0 0 1 -1.37446,1.374456 1.374459,1.3744557 0 0 1 -1.37445,-1.374456 1.374459,1.3744557 0 0 1 1.37445,-1.374456 z"
         id="path21337-4" />
      <path
         id="path21347-0"
         d="m 108.52773,12.799745 a 1.374459,1.3744557 0 0 1 1.37446,1.374456 1.374459,1.3744557 0 0 1 -1.37446,1.374456 1.374459,1.3744557 0 0 1 -1.37445,-1.374456 1.374459,1.3744557 0 0 1 1.37445,-1.374456 z"
         style="opacity:1;fill:none;fill-opacity:1;stroke:#0000fe;stroke-width:0.25108796;stroke-opacity:1;shape-rendering:crispEdges"
         inkscape:connector-curvature="0" />
      <path
         inkscape:connector-curvature="0"
         style="opacity:1;fill:none;fill-opacity:1;stroke:#0000fe;stroke-width:0.25108796;stroke-opacity:1;shape-rendering:crispEdges"
         d="m 164.52773,68.799745 a 1.374459,1.3744557 0 0 1 1.37446,1.374456 1.374459,1.3744557 0 0 1 -1.37446,1.374456 1.374459,1.3744557 0 0 1 -1.37445,-1.374456 1.374459,1.3744557 0 0 1 1.37445,-1.374456 z"
         id="path21349-4" />
      <path
         id="path21351-0"
         d="m 108.52773,68.799745 a 1.374459,1.3744557 0 0 1 1.37446,1.374456 1.374459,1.3744557 0 0 1 -1.37446,1.374456 1.374459,1.3744557 0 0 1 -1.37445,-1.374456 1.374459,1.3744557 0 0 1 1.37445,-1.374456 z"
         style="opacity:1;fill:none;fill-opacity:1;stroke:#0000fe;stroke-width:0.25108796;stroke-opacity:1;shape-rendering:crispEdges"
         inkscape:connector-curvature="0" />
    </g>
    <path
       style="font-size:medium;opacity:1;vector-effect:non-scaling-stroke;fill:none;fill-rule:evenodd;stroke:#f00000;stroke-width:0.33020002;stroke-linecap:round;stroke-miterlimit:4;stroke-dasharray:none;stroke-opacity:1"
       d="m 16.139,179.04322 v 3.16984 h 40.9944 v -3.16984 h 10.00249 v -18.82934 h 3.00035 v -7.71049 h -2.75023 v -1.37459 -1.37512 h 2.75023 v -30.50267 h -3.00035 l 0,-25.03155 -14.25029,5.1e-4 V 91.21964 H 20.38526 v 3.00033 l -14.249265,10e-4 v 25.03 h -2.99983 v 30.50271 h 2.74971 v 1.37512 1.37459 h -2.74971 v 7.71049 h 2.99983 v 18.82934 z"
       id="path8396"
       inkscape:connector-curvature="0"
       sodipodi:nodetypes="ccccccccccccccccccccccccccccccc" />
    <path
       style="opacity:1;fill:none;fill-opacity:0.65700486;stroke:#00f100;stroke-width:0.33329996;stroke-miterlimit:4;stroke-dasharray:none;stroke-opacity:1"
       d="m 56.46956,128.03402 v 30.60813 c 0,1.67822 -1.35007,3.02928 -3.02706,3.02928 H 19.82989 c -1.67698,0 -3.02705,-1.35106 -3.02705,-3.02928 v -30.60813 c 0,-1.67822 1.35007,-3.02928 3.02705,-3.02928 H 53.4425 c 1.67698,0 3.02706,1.35106 3.02706,3.02928 z"
       id="rect40814-0"
       inkscape:connector-curvature="0" />
    <path
       id="path46079"
       d="m 59.35948,119.30531 a 0.94181347,0.94181434 0 0 0 0.94182,0.94181 0.94181347,0.94181434 0 0 0 0.94181,-0.94181 0.94181347,0.94181434 0 0 0 -0.94181,-0.94182 0.94181347,0.94181434 0 0 0 -0.94182,0.94182 z"
       style="opacity:1;fill:none;fill-opacity:0.41176471;stroke:#0000f4;stroke-width:0.36637232;stroke-miterlimit:4;stroke-dasharray:none;stroke-opacity:1"
       inkscape:connector-curvature="0" />
    <path
       inkscape:connector-curvature="0"
       style="opacity:1;fill:none;fill-opacity:0.41176471;stroke:#0000f4;stroke-width:0.36637232;stroke-miterlimit:4;stroke-dasharray:none;stroke-opacity:1"
       d="m 59.35948,101.30531 a 0.94181347,0.94181434 0 0 0 0.94182,0.94181 0.94181347,0.94181434 0 0 0 0.94181,-0.94181 0.94181347,0.94181434 0 0 0 -0.94181,-0.94182 0.94181347,0.94181434 0 0 0 -0.94182,0.94182 z"
       id="path46081" />
    <path
       inkscape:connector-curvature="0"
       style="opacity:1;fill:none;fill-opacity:0.41176471;stroke:#0000f4;stroke-width:0.36637232;stroke-miterlimit:4;stroke-dasharray:none;stroke-opacity:1"
       d="m 12.02929,119.30531 a 0.94181347,0.94181434 0 0 0 0.94181,0.94181 0.94181347,0.94181434 0 0 0 0.94182,-0.94181 0.94181347,0.94181434 0 0 0 -0.94182,-0.94182 0.94181347,0.94181434 0 0 0 -0.94181,0.94182 z"
       id="path46083" />
    <path
       id="path46085"
       d="m 12.02929,101.30531 a 0.94181347,0.94181434 0 0 0 0.94181,0.94181 0.94181347,0.94181434 0 0 0 0.94182,-0.94181 0.94181347,0.94181434 0 0 0 -0.94182,-0.94182 0.94181347,0.94181434 0 0 0 -0.94181,0.94182 z"
       style="opacity:1;fill:none;fill-opacity:0.41176471;stroke:#0000f4;stroke-width:0.36637232;stroke-miterlimit:4;stroke-dasharray:none;stroke-opacity:1"
       inkscape:connector-curvature="0" />
    <path
       id="circle7408"
       d="m 62.13491,169.32565 a 1.4999969,1.4999969 0 0 1 1.49999,1.5 1.4999969,1.4999969 0 0 1 -1.49999,1.5 1.4999969,1.4999969 0 0 1 -1.5,-1.5 1.4999969,1.4999969 0 0 1 1.5,-1.5 z"
       style="fill-opacity:0;stroke:#0000f4;stroke-width:0.33020002;stroke-miterlimit:4;stroke-dasharray:none;stroke-opacity:1"
       inkscape:connector-curvature="0" />
    <path
       inkscape:connector-curvature="0"
       style="fill-opacity:0;stroke:#0000f4;stroke-width:0.33020002;stroke-miterlimit:4;stroke-dasharray:none;stroke-opacity:1"
       d="m 11.137495,169.32566 a 1.4999969,1.4999969 0 0 1 1.499995,1.5 1.4999969,1.4999969 0 0 1 -1.499995,1.5 1.4999969,1.4999969 0 0 1 -1.499997,-1.5 1.4999969,1.4999969 0 0 1 1.499997,-1.5 z"
       id="path8024" />
    <path
       inkscape:connector-curvature="0"
       style="fill:none;stroke:#0000f4;stroke-width:0.33020002;stroke-miterlimit:4;stroke-dasharray:none;stroke-opacity:1"
       d="m 23.52752,167.07038 -0.0616,-0.083 -0.0334,-0.045 -0.107,-0.119 -0.118,-0.107 -0.128,-0.095 -0.137,-0.082 -0.14401,-0.069 -0.15,-0.053 -0.114,-0.0287 -0.041,-0.0103 -0.158,-0.024 -0.159,-0.007 -0.16,0.007 -0.157,0.024 -0.155,0.039 -0.15,0.053 -0.044,0.0211 -0.1,0.0479 -0.137,0.082 -0.12801,0.095 -0.118,0.107 -0.108,0.119 -0.095,0.128 -0.082,0.137 -0.068,0.144 -0.054,0.151 -0.038,0.154 -0.024,0.158 -0.007,0.16 0.002,0.037 0.005,0.123 0.024,0.158 0.038,0.154 0.054,0.151 0.068,0.144 0.082,0.137 0.095,0.128 0.108,0.119 0.118,0.107 0.12801,0.095 0.137,0.082 0.1,0.0479 0.044,0.0211 0.15,0.053 0.155,0.039 0.157,0.024 0.16,0.008 0.159,-0.008 0.158,-0.024 0.041,-0.0103 0.114,-0.0287 0.15,-0.053 0.14401,-0.069 0.137,-0.082 0.128,-0.095 0.118,-0.107 0.107,-0.119 0.095,-0.128 0.082,-0.137 0.068,-0.144 0.054,-0.151 0.039,-0.154 0.023,-0.158 0.006,-0.123 0.002,-0.037 -0.008,-0.16 -0.023,-0.158 -0.039,-0.154 -0.054,-0.151 -0.068,-0.144 -0.082,-0.137"
       id="path9172" />
    <path
       inkscape:connector-curvature="0"
       style="fill:none;stroke:#0000f4;stroke-width:0.33020002;stroke-miterlimit:4;stroke-dasharray:none;stroke-opacity:1"
       d="m 52.12587,166.71638 -0.053,-0.0393 -0.075,-0.0557 -0.137,-0.082 -0.144,-0.069 -0.15,-0.053 -0.155,-0.039 -0.157,-0.024 -0.16,-0.007 -0.159,0.007 -0.158,0.024 -0.15501,0.039 -0.15,0.053 -0.144,0.069 -0.137,0.082 -0.128,0.095 -0.039,0.0354 -0.079,0.0716 -0.107,0.119 -0.095,0.128 -0.082,0.137 -0.068,0.144 -0.054,0.151 -0.039,0.154 -0.023,0.158 -0.008,0.16 0.002,0.037 0.006,0.123 0.023,0.158 0.039,0.154 0.054,0.151 0.068,0.144 0.082,0.137 0.095,0.128 0.107,0.119 0.079,0.0716 0.039,0.0354 0.128,0.095 0.137,0.082 0.144,0.069 0.15,0.053 0.15501,0.039 0.158,0.024 0.113,0.006 0.046,0.002 0.16,-0.008 0.157,-0.024 0.155,-0.039 0.15,-0.053 0.144,-0.069 0.137,-0.082 0.075,-0.0557 0.053,-0.0393 0.11801,-0.107 0.108,-0.119 0.095,-0.128 0.082,-0.137 0.068,-0.144 0.054,-0.151 0.038,-0.154 0.024,-0.158 0.006,-0.123 0.002,-0.037 -0.008,-0.16 -0.024,-0.158 -0.038,-0.154 -0.054,-0.151 -0.068,-0.144 -0.082,-0.137 -0.095,-0.128 -0.108,-0.119 -0.11801,-0.107"
       id="path9170" />
    <path
       style="opacity:1;fill:none;fill-opacity:0.41176471;stroke:#00f100;stroke-width:0.25822565;stroke-miterlimit:4;stroke-dasharray:none;stroke-opacity:1"
       d="M 24.26531,100.053 V 94.31123 H 49.00709 V 100.053 Z"
       id="rect46365"
       inkscape:connector-curvature="0" />
    <path
       inkscape:connector-curvature="0"
       style="opacity:1;fill:none;fill-opacity:0.41176471;stroke:#0000f4;stroke-width:0.36637232;stroke-miterlimit:4;stroke-dasharray:none;stroke-opacity:1"
       d="m 26.34438,97.18214 a 1.1668118,1.1668129 0 0 0 1.16681,1.1668 1.1668118,1.1668129 0 0 0 1.16681,-1.1668 1.1668118,1.1668129 0 0 0 -1.16681,-1.16683 1.1668118,1.1668129 0 0 0 -1.16681,1.16683 z"
       id="path14821" />
    <path
       id="path14823"
       d="m 44.59438,97.18214 a 1.1668118,1.1668129 0 0 0 1.16682,1.1668 1.1668118,1.1668129 0 0 0 1.1668,-1.1668 1.1668118,1.1668129 0 0 0 -1.1668,-1.16683 1.1668118,1.1668129 0 0 0 -1.16682,1.16683 z"
       style="opacity:1;fill:none;fill-opacity:0.41176471;stroke:#0000f4;stroke-width:0.36637232;stroke-miterlimit:4;stroke-dasharray:none;stroke-opacity:1"
       inkscape:connector-curvature="0" />
    <path
       id="path20013"
       d="m 37.9872,176.47359 -0.0616,-0.083 -0.0334,-0.045 -0.107,-0.119 -0.118,-0.107 -0.128,-0.095 -0.137,-0.082 -0.14401,-0.069 -0.15,-0.053 -0.114,-0.0287 -0.041,-0.0103 -0.158,-0.024 -0.159,-0.007 -0.16,0.007 -0.157,0.024 -0.155,0.039 -0.15,0.053 -0.044,0.0211 -0.1,0.0479 -0.137,0.082 -0.12801,0.095 -0.118,0.107 -0.108,0.119 -0.095,0.128 -0.082,0.137 -0.068,0.144 -0.054,0.151 -0.038,0.154 -0.024,0.158 -0.007,0.16 0.002,0.037 0.005,0.123 0.024,0.158 0.038,0.154 0.054,0.151 0.068,0.144 0.082,0.137 0.095,0.128 0.108,0.119 0.118,0.107 0.12801,0.095 0.137,0.082 0.1,0.0479 0.044,0.0211 0.15,0.053 0.155,0.039 0.157,0.024 0.16,0.008 0.159,-0.008 0.158,-0.024 0.041,-0.0103 0.114,-0.0287 0.15,-0.053 0.14401,-0.069 0.137,-0.082 0.128,-0.095 0.118,-0.107 0.107,-0.119 0.095,-0.128 0.082,-0.137 0.068,-0.144 0.054,-0.151 0.039,-0.154 0.023,-0.158 0.006,-0.123 0.002,-0.037 -0.008,-0.16 -0.023,-0.158 -0.039,-0.154 -0.054,-0.151 -0.068,-0.144 -0.082,-0.137"
       style="fill:none;stroke:#0000f4;stroke-width:0.33020002;stroke-miterlimit:4;stroke-dasharray:none;stroke-opacity:1"
       inkscape:connector-curvature="0" />
    <path
       inkscape:connector-curvature="0"
       style="fill:none;stroke:#0000f4;stroke-width:0.33020002;stroke-miterlimit:4;stroke-dasharray:none;stroke-opacity:1"
       d="m 37.9872,167.07038 -0.0616,-0.083 -0.0334,-0.045 -0.107,-0.119 -0.118,-0.107 -0.128,-0.095 -0.137,-0.082 -0.14401,-0.069 -0.15,-0.053 -0.114,-0.0287 -0.041,-0.0103 -0.158,-0.024 -0.159,-0.007 -0.16,0.007 -0.157,0.024 -0.155,0.039 -0.15,0.053 -0.044,0.0211 -0.1,0.0479 -0.137,0.082 -0.12801,0.095 -0.118,0.107 -0.108,0.119 -0.095,0.128 -0.082,0.137 -0.068,0.144 -0.054,0.151 -0.038,0.154 -0.024,0.158 -0.007,0.16 0.002,0.037 0.005,0.123 0.024,0.158 0.038,0.154 0.054,0.151 0.068,0.144 0.082,0.137 0.095,0.128 0.108,0.119 0.118,0.107 0.12801,0.095 0.137,0.082 0.1,0.0479 0.044,0.0211 0.15,0.053 0.155,0.039 0.157,0.024 0.16,0.008 0.159,-0.008 0.158,-0.024 0.041,-0.0103 0.114,-0.0287 0.15,-0.053 0.14401,-0.069 0.137,-0.082 0.128,-0.095 0.118,-0.107 0.107,-0.119 0.095,-0.128 0.082,-0.137 0.068,-0.144 0.054,-0.151 0.039,-0.154 0.023,-0.158 0.006,-0.123 0.002,-0.037 -0.008,-0.16 -0.023,-0.158 -0.039,-0.154 -0.054,-0.151 -0.068,-0.144 -0.082,-0.137"
       id="path22196" />
    <path
       id="path22202"
       d="m 37.9872,162.72634 -0.0616,-0.083 -0.0334,-0.045 -0.107,-0.119 -0.118,-0.107 -0.128,-0.095 -0.137,-0.082 -0.14401,-0.069 -0.15,-0.053 -0.114,-0.0287 -0.041,-0.0103 -0.158,-0.024 -0.159,-0.007 -0.16,0.007 -0.157,0.024 -0.155,0.039 -0.15,0.053 -0.044,0.0211 -0.1,0.0479 -0.137,0.082 -0.12801,0.095 -0.118,0.107 -0.108,0.119 -0.095,0.128 -0.082,0.137 -0.068,0.144 -0.054,0.151 -0.038,0.154 -0.024,0.158 -0.007,0.16 0.002,0.037 0.005,0.123 0.024,0.158 0.038,0.154 0.054,0.151 0.068,0.144 0.082,0.137 0.095,0.128 0.108,0.119 0.118,0.107 0.12801,0.095 0.137,0.082 0.1,0.0479 0.044,0.0211 0.15,0.053 0.155,0.039 0.157,0.024 0.16,0.008 0.159,-0.008 0.158,-0.024 0.041,-0.0103 0.114,-0.0287 0.15,-0.053 0.14401,-0.069 0.137,-0.082 0.128,-0.095 0.118,-0.107 0.107,-0.119 0.095,-0.128 0.082,-0.137 0.068,-0.144 0.054,-0.151 0.039,-0.154 0.023,-0.158 0.006,-0.123 0.002,-0.037 -0.008,-0.16 -0.023,-0.158 -0.039,-0.154 -0.054,-0.151 -0.068,-0.144 -0.082,-0.137"
       style="fill:none;stroke:#0000f4;stroke-width:0.33020002;stroke-miterlimit:4;stroke-dasharray:none;stroke-opacity:1"
       inkscape:connector-curvature="0" />
  </g>
  <g
     inkscape:groupmode="layer"
     id="layer2"
     inkscape:label="Layer 2"
     transform="translate(0,-88.900001)" />
  <inkscape:templateinfo>
    <inkscape:name>Laser</inkscape:name>
    <inkscape:date>2023-03-17</inkscape:date>
  </inkscape:templateinfo>
</svg>
